# xmcd
#
# Track frame offsets: 
#        150
#        14199
#        29011
#        44858
#        58937
#        80118
#        95481
#        108153
#        126220
#        137056
#        153897
#        168873
#
# Disc length: 2634 seconds
#
# Revision: 0
# Processed by: cddbd v1.5.2PL0 Copyright (c) Steve Scherf et al.
# Submitted via: ExactAudioCopy v1.2
#
DISCID=ab0a480c
DTITLE=Harrison Street Band - Harrison Street
DYEAR=2018
DGENRE=Blues
TTITLE0=No Drama Mama
TTITLE1=Drink Your Whiskey
TTITLE2=Rain Dance
TTITLE3=Funky Way to Treat Somebody
TTITLE4=Phoenix
TTITLE5=Old Shoes
TTITLE6=Quit That Man
TTITLE7=Run Away
TTITLE8=Rattler
TTITLE9=Trouble
TTITLE10=Turn It Up
TTITLE11=Devil Gotta Mess
EXTD=
EXTT0=
EXTT1=
EXTT2=
EXTT3=
EXTT4=
EXTT5=
EXTT6=
EXTT7=
EXTT8=
EXTT9=
EXTT10=
EXTT11=
PLAYORDER=
